<svg width="252" height="195" viewBox="0 0 252 195" fill="none" xmlns="http://www.w3.org/2000/svg">
<g clip-path="url(#clip0)">
<path d="M127.496 195C196.258 195 252 190.817 252 185.658C252 180.498 196.258 176.316 127.496 176.316C58.7351 176.316 2.99292 180.498 2.99292 185.658C2.99292 190.817 58.7351 195 127.496 195Z" fill="#3F3D56"/>
<path d="M233.255 168.303L234.422 176.522L226.254 177.269L227.421 167.182L233.255 168.303Z" fill="#FFB9B9"/>
<path d="M194.747 55.4782C194.747 55.4782 195.525 65.5652 195.525 65.9388C195.525 66.3124 190.079 92.0902 190.079 92.0902C190.079 92.0902 182.3 106.287 190.079 105.913C197.859 105.539 195.525 92.4638 195.525 92.4638L203.693 70.7955L200.192 55.4782L194.747 55.4782Z" fill="#FFB9B9"/>
<path d="M207.583 168.303L206.416 176.522L214.585 177.269L213.418 167.182L207.583 168.303Z" fill="#FFB9B9"/>
<path d="M198.636 91.343L196.692 93.9581C196.692 93.9581 195.525 105.166 196.692 108.902C197.859 112.638 200.192 129.823 200.192 130.944C200.192 132.064 200.581 132.812 200.192 133.185C199.803 133.559 198.636 133.559 199.414 134.306C200.192 135.053 200.192 137.295 200.192 137.295V139.163L205.249 166.808C205.249 166.808 202.137 170.171 204.471 170.171C206.805 170.171 215.362 170.171 214.973 166.435L214.195 166.061C214.195 166.061 213.029 141.404 213.418 140.283C213.806 139.163 213.418 136.921 213.418 136.921C213.418 136.921 212.64 135.8 213.418 135.427C214.195 135.053 214.195 132.064 214.195 132.064L217.696 109.275C217.696 109.275 220.808 124.593 222.753 126.087C224.698 127.581 224.309 131.317 224.309 131.317L225.865 164.193C225.865 164.193 224.309 167.929 225.865 168.676C227.421 169.423 234.033 172.039 234.422 168.303C234.811 164.567 236.756 132.064 236.756 130.57C236.756 129.076 236.367 128.328 236.756 127.208C237.145 126.087 236.367 126.087 236.756 126.087C237.145 126.087 235.978 124.966 235.978 124.219V105.913C235.978 105.913 236.367 102.177 236.756 101.43C237.145 100.683 236.367 99.9356 236.756 98.8148C237.145 97.694 235.978 93.9581 235.978 93.9581L218.474 89.475L198.636 91.343Z" fill="#2F2E41"/>
<path d="M212.251 175.027C212.251 175.027 214.196 173.159 211.473 173.159C209.725 173.194 208.003 173.575 206.416 174.28L204.471 181.005C204.471 181.005 196.497 187.169 205.444 186.422C214.39 185.675 213.029 186.235 213.029 186.235C213.029 186.235 215.751 185.488 216.14 184.741C216.529 183.993 215.362 173.159 215.362 173.159C215.362 173.159 214.196 176.148 212.251 175.027Z" fill="#2F2E41"/>
<path d="M228.976 175.027C228.976 175.027 227.032 173.159 229.754 173.159C231.502 173.194 233.224 173.575 234.811 174.28L236.756 181.005C236.756 181.005 244.73 187.169 235.784 186.422C226.837 185.675 227.032 186.235 227.032 186.235C227.032 186.235 224.309 185.488 223.92 184.741C223.531 183.993 225.865 173.159 225.865 173.159C225.865 173.159 227.032 176.148 228.976 175.027Z" fill="#2F2E41"/>
<path d="M203.693 25.9646C209.279 25.9646 213.807 21.6157 213.807 16.2512C213.807 10.8867 209.279 6.53784 203.693 6.53784C198.108 6.53784 193.58 10.8867 193.58 16.2512C193.58 21.6157 198.108 25.9646 203.693 25.9646Z" fill="#FFB9B9"/>
<path d="M200.192 23.3494C200.192 23.3494 201.748 30.8212 201.748 31.942C201.748 33.0628 208.361 36.4251 208.361 36.4251L215.751 27.4589C215.751 27.4589 211.084 21.1079 211.084 19.6135L200.192 23.3494Z" fill="#FFB9B9"/>
<path d="M206.027 33.0628C206.027 33.0628 202.637 32.1961 201.609 30.7615C201.609 30.7615 190.857 40.9082 190.857 42.7762L199.414 57.3462C199.414 57.3462 199.414 62.5765 200.192 62.9501C200.97 63.3237 200.192 62.9501 200.192 64.4444C200.192 65.9388 197.859 75.6522 198.637 77.1465C199.414 78.6409 200.192 77.5201 199.414 79.7617C198.637 82.0032 196.692 93.9581 196.692 93.9581C196.692 93.9581 203.693 91.7166 213.807 95.4525C223.92 99.1884 235.978 93.9581 235.978 93.9581C235.978 93.9581 232.866 87.2335 233.644 84.9919C234.422 82.7504 231.699 78.6409 231.699 78.6409L229.754 44.2705C229.754 44.2705 232.477 28.9533 230.532 28.2061L226.643 26.7117L214.186 25.2413C214.186 25.2413 211.084 32.6892 206.027 33.0628Z" fill="#D0CDE1"/>
<path d="M194.747 40.161L190.857 42.7761C190.857 42.7761 188.912 48.38 190.857 50.9951C192.802 53.6103 193.58 57.3462 193.58 57.3462L201.359 56.599L194.747 40.161Z" fill="#D0CDE1"/>
<path d="M195.972 5.98584L194.217 5.3113C194.217 5.3113 197.885 1.43272 202.989 1.77L201.553 0.25227C201.553 0.25227 205.062 -1.09679 208.252 2.44451C209.928 4.3061 211.868 6.4943 213.078 8.95927H214.956L214.172 10.6175L216.917 12.2757L214.1 11.9779C214.367 13.4095 214.275 14.8815 213.833 16.2725L213.909 17.5832C213.909 17.5832 210.644 12.7312 210.644 12.0566V13.743C210.644 13.743 208.889 12.2253 208.889 11.2135L207.933 12.3939L207.454 10.5389L201.553 12.3939L202.51 10.8762L198.842 11.3821L200.278 9.52716C200.278 9.52716 196.131 11.7194 195.972 13.5744C195.812 15.4294 193.739 17.7902 193.739 17.7902L192.782 16.1039C192.782 16.1039 191.347 8.51534 195.972 5.98584Z" fill="#2F2E41"/>
<path d="M198.317 81.3004H43.7466V185.587H198.317V81.3004Z" fill="#F2F2F2"/>
<path d="M95.5693 121.091H56.7583V186.162H95.5693V121.091Z" fill="#3F3D56"/>
<path d="M74.3919 124.994H63.9373V134.355H74.3919V124.994Z" fill="#F2F2F2"/>
<path d="M88.3904 124.994H77.9358V134.355H88.3904V124.994Z" fill="#F2F2F2"/>
<path d="M74.3919 137.758H63.9373V147.459H74.3919V137.758Z" fill="#F2F2F2"/>
<path d="M88.3904 137.758H77.9358V147.459H88.3904V137.758Z" fill="#F2F2F2"/>
<path d="M90.6338 160.377C91.9967 160.377 93.1015 159.316 93.1015 158.007C93.1015 156.698 91.9967 155.637 90.6338 155.637C89.2709 155.637 88.166 156.698 88.166 158.007C88.166 159.316 89.2709 160.377 90.6338 160.377Z" fill="#6C63FF"/>
<path d="M185.306 114.913H108.581V176.753H185.306V114.913Z" fill="#3F3D56"/>
<path d="M214.47 100.934H27.594L40.0539 75.9135L42.8424 70.3114L46.4904 62.9854L49.2789 57.3833L52.5115 50.8935H199.747L201.656 57.3833L203.304 62.9854L205.461 70.3114L207.109 75.9135L214.47 100.934Z" fill="#3F3D56"/>
<path d="M113.965 140.554H111.273V156.499H113.965V140.554Z" fill="#6C63FF"/>
<path d="M113.965 142.924H111.273V144.864H113.965V142.924Z" fill="#F2F2F2"/>
<path d="M113.965 152.19H111.273V154.129H113.965V152.19Z" fill="#F2F2F2"/>
<path d="M121.817 140.554H115.311V156.499H121.817V140.554Z" fill="#6C63FF"/>
<path d="M121.817 142.924H115.311V144.864H121.817V142.924Z" fill="#F2F2F2"/>
<path d="M121.817 152.19H115.311V154.129H121.817V152.19Z" fill="#F2F2F2"/>
<path d="M126.08 140.554H123.388V156.499H126.08V140.554Z" fill="#6C63FF"/>
<path d="M126.08 142.924H123.388V144.864H126.08V142.924Z" fill="#F2F2F2"/>
<path d="M126.08 152.19H123.388V154.129H126.08V152.19Z" fill="#F2F2F2"/>
<path d="M130.118 140.554H127.426V156.499H130.118V140.554Z" fill="#6C63FF"/>
<path d="M130.118 142.924H127.426V144.864H130.118V142.924Z" fill="#F2F2F2"/>
<path d="M130.118 152.19H127.426V154.129H130.118V152.19Z" fill="#F2F2F2"/>
<path d="M132.712 140.611L130.193 141.523L136.049 156.442L138.568 155.53L132.712 140.611Z" fill="#6C63FF"/>
<path d="M133.582 142.828L131.063 143.74L131.776 145.555L134.295 144.643L133.582 142.828Z" fill="#F2F2F2"/>
<path d="M136.985 151.498L134.466 152.41L135.178 154.225L137.697 153.313L136.985 151.498Z" fill="#F2F2F2"/>
<path d="M182.838 140.554H176.332V156.499H182.838V140.554Z" fill="#6C63FF"/>
<path d="M182.838 142.924H176.332V144.864H182.838V142.924Z" fill="#F2F2F2"/>
<path d="M182.838 152.19H176.332V154.129H182.838V152.19Z" fill="#F2F2F2"/>
<path d="M174.762 140.554H172.07V156.499H174.762V140.554Z" fill="#6C63FF"/>
<path d="M174.762 142.924H172.07V144.864H174.762V142.924Z" fill="#F2F2F2"/>
<path d="M174.762 152.19H172.07V154.129H174.762V152.19Z" fill="#F2F2F2"/>
<path d="M170.723 140.554H168.031V156.499H170.723V140.554Z" fill="#6C63FF"/>
<path d="M170.723 142.924H168.031V144.864H170.723V142.924Z" fill="#F2F2F2"/>
<path d="M170.723 152.19H168.031V154.129H170.723V152.19Z" fill="#F2F2F2"/>
<path d="M165.437 140.611L159.582 155.53L162.101 156.442L167.956 141.523L165.437 140.611Z" fill="#6C63FF"/>
<path d="M164.567 142.828L163.855 144.643L166.374 145.555L167.086 143.74L164.567 142.828Z" fill="#F2F2F2"/>
<path d="M161.164 151.498L160.452 153.313L162.971 154.225L163.683 152.41L161.164 151.498Z" fill="#F2F2F2"/>
<path d="M185.306 156.499H108.581V158.007H185.306V156.499Z" fill="#F2F2F2"/>
<path d="M156.141 140.554H142.008V156.499H156.141V140.554Z" fill="#6C63FF"/>
<path d="M152.664 144.002H145.485V147.018H152.664V144.002Z" fill="#F2F2F2"/>
<path d="M147.616 114.913H146.27V128.703H147.616V114.913Z" fill="#F2F2F2"/>
<path d="M146.943 130.858C148.182 130.858 149.187 129.893 149.187 128.703C149.187 127.513 148.182 126.549 146.943 126.549C145.704 126.549 144.7 127.513 144.7 128.703C144.7 129.893 145.704 130.858 146.943 130.858Z" fill="#F2F2F2"/>
<path d="M203.304 62.9854H46.4904L49.2788 57.3833H201.656L203.304 62.9854Z" fill="#6C63FF"/>
<path d="M207.109 75.9135H40.054L42.8424 70.3114H205.461L207.109 75.9135Z" fill="#6C63FF"/>
<path d="M223.531 43.5233C223.531 43.5233 221.278 49.0864 221.749 54.5905C221.835 55.576 222.18 56.5242 222.753 57.3462V57.3462L195.157 69.9292C195.157 69.9292 182.689 71.1691 185.8 76.3993C188.912 81.6296 200.192 73.7842 200.192 73.7842C200.192 73.7842 229.754 69.6747 232.088 65.5652C234.422 61.4557 235.978 44.2705 235.978 44.2705L223.531 43.5233Z" fill="#FFB9B9"/>
<path d="M224.698 28.2061H230.532C230.532 28.2061 234.811 28.9533 235.978 36.4251C237.145 43.8969 238.312 45.7649 237.145 45.7649C235.978 45.7649 221.975 45.3913 221.975 45.0177C221.975 44.6441 224.698 28.2061 224.698 28.2061Z" fill="#D0CDE1"/>
<path d="M29.9287 139.809C46.4579 139.809 59.8575 126.94 59.8575 111.064C59.8575 95.1888 46.4579 82.3192 29.9287 82.3192C13.3996 82.3192 0 95.1888 0 111.064C0 126.94 13.3996 139.809 29.9287 139.809Z" fill="#6C63FF"/>
<path opacity="0.1" d="M29.9288 135.785C44.1439 135.785 55.6675 124.717 55.6675 111.064C55.6675 97.4114 44.1439 86.3435 29.9288 86.3435C15.7137 86.3435 4.19006 97.4114 4.19006 111.064C4.19006 124.717 15.7137 135.785 29.9288 135.785Z" fill="black"/>
<path d="M28.6954 125.652V122.054C26.8017 122.018 24.8426 121.377 23.7 120.486L24.4835 118.1C25.8414 119.077 27.4883 119.613 29.1851 119.631C31.5033 119.631 33.0705 118.171 33.0705 116.14C33.0705 114.181 31.7971 112.97 29.381 111.901C26.0507 110.476 23.9938 108.837 23.9938 105.738C23.9938 102.781 25.9201 100.537 28.924 100.002V96.4043H30.9483V99.8599C32.4577 99.8797 33.9301 100.312 35.1928 101.107L34.3765 103.458C33.1654 102.662 31.7302 102.239 30.2626 102.247C27.7486 102.247 26.8017 103.885 26.8017 105.31C26.8017 107.163 28.0097 108.089 30.8504 109.372C34.2132 110.868 35.9112 112.72 35.9112 115.891C35.9112 118.705 34.1153 121.341 30.7523 121.947V125.652H28.6954Z" fill="#F2F2F2"/>
</g>
<defs>
<clipPath id="clip0">
<rect width="252" height="195" fill="white"/>
</clipPath>
</defs>
</svg>
