<svg width="313" height="199" viewBox="0 0 313 199" fill="none" xmlns="http://www.w3.org/2000/svg">
<g clip-path="url(#clip0)">
<path d="M43.658 196.156C67.7697 196.156 87.3161 177.792 87.3161 155.139C87.3161 132.486 67.7697 114.121 43.658 114.121C19.5464 114.121 0 132.486 0 155.139C0 177.792 19.5464 196.156 43.658 196.156Z" fill="#F2F2F2"/>
<path d="M96.4702 173.332C75.1287 173.332 54.4474 166.38 37.9502 153.66C21.4529 140.94 10.1605 123.239 5.99691 103.574C1.83333 83.9085 5.05626 63.495 15.1165 45.8118C25.1768 28.1287 41.452 14.2698 61.1689 6.5967C80.8859 -1.07641 102.825 -2.08904 123.247 3.73136C143.67 9.55176 161.313 21.8451 173.169 38.5166C185.026 55.1882 190.363 75.2065 188.271 95.1607C186.179 115.115 176.788 133.77 161.697 147.948C153.152 156.021 142.986 162.422 131.79 166.779C120.594 171.136 108.589 173.363 96.4702 173.332V173.332ZM96.4702 0.661557C45.9944 0.661557 4.92917 39.2429 4.92917 86.6661C4.92917 134.089 45.9944 172.671 96.4702 172.671C146.946 172.671 188.011 134.089 188.011 86.6661C188.011 39.2429 146.946 0.661557 96.4702 0.661557V0.661557Z" fill="#2F2E41"/>
<path d="M144.529 114.097L144.519 114.102L99.0541 137.887L49.2689 114.5L48.4109 114.097L50.9948 65.5464L95.9533 35.4448L96.4495 35.7362L142.979 63.1189L144.529 114.097Z" fill="#6C63FF"/>
<path opacity="0.3" d="M144.519 114.102L99.0541 137.887L49.2689 114.5L93.3695 85.4525L144.519 114.102Z" fill="black"/>
<path opacity="0.1" d="M144.529 114.097L93.3695 85.4525L96.4495 35.7362L142.979 63.1189L144.529 114.097Z" fill="black"/>
<path d="M50.333 80.528L50.0803 80.192L95.5407 50.0449L143.563 78.3325L143.331 78.6812L95.5549 50.5389L50.333 80.528Z" fill="#F2F2F2"/>
<path d="M49.4518 97.0222L49.2061 96.6821L94.4358 67.8317L94.5543 67.8948L143.604 94.0127L143.388 94.3705L94.4566 68.3156L49.4518 97.0222Z" fill="#F2F2F2"/>
<path d="M66.7092 122.814L66.4786 122.464L112.063 95.9268V45.0534H112.5V96.1559L66.7092 122.814Z" fill="#F2F2F2"/>
<path d="M84.6008 131.217L84.3683 130.869L128.26 105.004V54.5856H128.698V105.232L84.6008 131.217Z" fill="#F2F2F2"/>
<path d="M128.095 122.819L77.0483 96.1719L77.0555 96.0437L79.7427 46.142L80.1799 46.163L77.4996 95.9365L128.308 122.459L128.095 122.819Z" fill="#F2F2F2"/>
<path d="M112.035 131.225L61.5614 106.375L61.5693 106.243L64.5446 56.3166L64.9818 56.3397L62.0146 106.134L112.238 130.861L112.035 131.225Z" fill="#F2F2F2"/>
<path d="M153.155 35.3942C162.878 35.3942 170.759 27.9893 170.759 18.8549C170.759 9.72049 162.878 2.31558 153.155 2.31558C143.433 2.31558 135.551 9.72049 135.551 18.8549C135.551 27.9893 143.433 35.3942 153.155 35.3942Z" fill="#3F3D56"/>
<path d="M313 195.495H10.2103V196.157H313V195.495Z" fill="#2F2E41"/>
<path d="M277.846 106.531L281.87 116.886C281.87 116.886 277.671 128.721 281.87 129.049C286.069 129.378 286.594 117.708 286.594 117.708L284.319 105.216L277.846 106.531Z" fill="#FFB9B9"/>
<path d="M279.771 72.6701L282.745 75.4644V88.7785C282.745 88.7785 284.494 91.244 284.145 91.9015C283.795 92.559 283.445 92.559 283.795 93.0521C284.145 93.5452 284.494 93.874 284.145 94.2027C283.974 94.4161 283.882 94.6756 283.882 94.9424C283.882 95.2091 283.974 95.4687 284.145 95.682C284.494 96.0108 285.194 96.5039 284.669 96.997C284.145 97.4901 283.445 97.1614 284.145 98.9695C284.844 100.778 286.069 101.271 285.719 101.928C285.369 102.586 285.369 104.229 285.369 104.229L277.846 105.216L276.272 86.6416L279.771 72.6701Z" fill="#D0CDE1"/>
<path d="M285.719 104.065L276.971 104.394L277.322 107.845L285.02 106.53L285.719 104.065Z" fill="#3F3D56"/>
<path d="M261.663 55.4932L260.613 65.3557L271.285 66.8349L272.073 61.164L272.86 55.4932H261.663Z" fill="#FFB9B9"/>
<path opacity="0.1" d="M261.663 55.4932L260.613 65.3557L271.285 66.8349L272.073 61.164L272.86 55.4932H261.663Z" fill="black"/>
<path d="M238.482 102.421L244.43 114.42C244.43 114.42 245.48 120.009 247.055 120.173C248.629 120.338 250.204 114.42 250.204 114.42L248.104 111.297L245.655 102.421L238.482 102.421Z" fill="#FFB9B9"/>
<path d="M250.904 113.27L246.005 120.502C246.005 120.502 241.281 189.374 241.981 188.881C242.681 188.387 244.955 188.223 245.83 186.908C246.705 185.593 252.128 186.908 252.128 186.908L255.277 183.785V181.319C255.277 180.826 261.576 143.185 261.576 143.185V152.719C261.576 152.719 259.651 187.73 262.8 187.401C265.95 187.072 272.423 185.1 272.423 185.1C272.423 185.1 281.695 119.68 278.896 117.215C276.097 114.749 274.872 109.16 274.872 109.16L250.904 113.27Z" fill="#2F2E41"/>
<path d="M267.524 58.6985C272.162 58.6985 275.922 55.1661 275.922 50.8087C275.922 46.4513 272.162 42.9189 267.524 42.9189C262.886 42.9189 259.126 46.4513 259.126 50.8087C259.126 55.1661 262.886 58.6985 267.524 58.6985Z" fill="#FFB9B9"/>
<path d="M248.804 66.9171L247.579 66.2596C247.579 66.2596 242.156 69.7114 240.406 77.4369C238.657 85.1623 237.432 87.1348 237.432 87.1348C237.432 87.1348 235.683 87.4635 236.907 88.6141C238.132 89.7647 238.132 89.6003 237.082 90.2578C236.033 90.9153 235.333 89.6003 236.033 90.9153C236.732 92.2303 237.607 91.9015 236.907 92.7234C236.208 93.5452 234.983 93.5452 235.683 94.2027C236.383 94.8602 234.983 96.3395 235.858 96.997C236.732 97.6545 237.082 97.8189 237.082 98.9695C237.077 99.641 237.195 100.308 237.432 100.942H246.53C246.53 100.942 244.78 97.8189 245.305 97.1614C245.83 96.5039 246.005 95.8464 245.655 95.5177C245.305 95.189 244.255 95.8464 245.305 95.0246C246.355 94.2027 246.705 94.6958 246.355 93.7096C246.005 92.7234 245.305 93.2165 246.005 92.7234C246.705 92.2303 247.23 92.3946 246.88 91.9015C246.53 91.4084 245.83 91.4084 246.53 91.0797C247.23 90.7509 247.754 91.0797 247.579 90.2578C247.405 89.436 247.23 89.7647 247.579 89.436C247.929 89.1072 251.603 77.93 251.603 77.6012C251.603 77.2725 248.804 66.9171 248.804 66.9171Z" fill="#D0CDE1"/>
<path d="M247.055 100.284L236.032 100.942L238.832 103.408L246.53 103.572L247.055 100.284Z" fill="#3F3D56"/>
<path d="M250.204 112.612L247.929 116.557C247.929 116.557 254.753 117.379 257.202 118.201C259.651 119.023 265.95 120.173 265.95 120.173L267.524 114.42L250.204 112.612Z" fill="#3F3D56"/>
<path d="M270.148 114.42L272.073 119.845L279.771 118.365L278.896 113.27L270.148 114.42Z" fill="#3F3D56"/>
<path d="M273.298 61.3285C273.298 61.3285 272.773 60.9997 271.548 61.6572C270.323 62.3147 266.299 62.6434 264.375 60.671C262.45 58.6985 261.051 57.0548 260.526 57.3836C260.001 57.7123 259.651 61.4928 259.651 61.4928L257.902 62.8078L247.579 66.2596L248.454 88.4497L250.029 93.5452C250.029 93.5452 248.804 97.4901 250.379 99.7913C251.953 102.093 249.504 102.914 249.504 102.914C249.504 102.914 248.979 103.572 249.329 105.216C249.679 106.859 248.979 112.941 248.979 112.941C248.979 112.941 263.85 119.187 279.421 113.763L277.671 107.517L276.797 93.5452C276.797 93.5452 277.671 91.244 277.496 90.2578C277.321 89.2716 282.745 75.4644 282.745 75.4644C282.745 75.4644 281.87 68.5608 277.321 67.0815C272.773 65.6021 272.073 64.1228 272.073 64.1228C272.073 64.1228 274.172 61.986 273.298 61.3285Z" fill="#D0CDE1"/>
<path d="M259.068 51.8194C259.068 51.8194 258.196 50.5904 258.531 49.2669C258.732 48.5155 258.811 47.7401 258.766 46.9665C259.141 45.82 259.613 44.7031 260.175 43.6263C260.879 42.4288 260.544 41.9246 262.758 41.5465C264.971 41.1683 264.066 38.4583 269.902 41.3889C270.099 41.6472 270.373 41.8449 270.689 41.9571C271.005 42.0692 271.35 42.0908 271.679 42.0191C272.887 41.7986 273.323 43.3742 273.323 43.3742C273.323 43.3742 274.128 42.933 274.43 43.5632C274.732 44.1935 276.884 43.185 276.884 47.4391C276.884 51.6933 274.435 55.4933 274.435 55.4933C274.435 55.4933 274.614 48.3373 270.623 47.6126C266.632 46.8878 262.338 44.7765 261.299 47.4865C260.737 49.0075 259.989 50.4617 259.068 51.8194Z" fill="#2F2E41"/>
<path d="M274.522 53.5209C274.957 53.5209 275.309 53.0793 275.309 52.5346C275.309 51.9899 274.957 51.5484 274.522 51.5484C274.087 51.5484 273.735 51.9899 273.735 52.5346C273.735 53.0793 274.087 53.5209 274.522 53.5209Z" fill="#FFB9B9"/>
<path d="M270.061 184.518L271.291 187.986C271.291 187.986 271.291 191.454 272.522 193.188C273.752 194.922 274.983 198.679 270.061 198.968C265.139 199.257 262.986 197.523 262.986 197.523C262.986 197.523 263.909 195.211 262.986 194.344C262.063 193.477 262.986 191.743 262.986 191.743L263.909 184.807L270.061 184.518Z" fill="#2F2E41"/>
<path d="M246.093 184.518L244.862 187.986C244.862 187.986 244.862 191.454 243.632 193.188C242.401 194.922 241.171 198.679 246.093 198.968C251.014 199.257 253.167 197.523 253.167 197.523C253.167 197.523 252.245 195.211 253.167 194.344C254.09 193.477 253.167 191.743 253.167 191.743L252.245 184.807L246.093 184.518Z" fill="#2F2E41"/>
</g>
<defs>
<clipPath id="clip0">
<rect width="313" height="199" fill="white"/>
</clipPath>
</defs>
</svg>
