<svg width="218" height="209" viewBox="0 0 218 209" fill="none" xmlns="http://www.w3.org/2000/svg">
<path d="M186.951 78.2155C175.605 33.5642 136.4 1.33214 90.382 0.039347C66.0537 -0.644122 40.4536 7.43089 21.8148 35.6883C-11.504 86.2015 23.8624 121.108 48.5188 137.694C60.4309 145.724 71.1643 155.379 80.4083 166.379C97.0629 186.158 129.103 210.737 167.26 172.226C194.917 144.314 194.508 107.958 186.951 78.2155Z" fill="#F2F2F2"/>
<path d="M217.747 177.652C217.747 188.612 169.957 209 109.758 209C49.5588 209 0 189.876 0 178.916C0 167.955 49.5588 169.309 109.758 169.309C169.957 169.309 217.747 166.691 217.747 177.652Z" fill="#3F3D56"/>
<path opacity="0.1" d="M217.747 177.652C217.747 188.612 169.957 209 109.758 209C49.5588 209 0 189.876 0 178.916C0 167.955 49.5588 169.309 109.758 169.309C169.957 169.309 217.747 166.691 217.747 177.652Z" fill="black"/>
<path d="M109 198.635C169.199 198.635 218 189.75 218 178.789C218 167.829 169.199 158.944 109 158.944C48.801 158.944 0 167.829 0 178.789C0 189.75 48.801 198.635 109 198.635Z" fill="#3F3D56"/>
<path d="M150.266 111.296V164.371L159.136 178.84L159.812 179.94H194.814L195.521 111.296H150.266Z" fill="#2F2E41"/>
<path opacity="0.1" d="M150.266 111.296V164.371L159.136 178.84L159.681 111.296H150.266Z" fill="black"/>
<path d="M65.7658 109.88V162.956L56.895 177.424L56.2198 178.525H21.2175L20.5105 109.88H65.7658Z" fill="#2F2E41"/>
<path opacity="0.1" d="M65.7658 109.88V162.956L56.895 177.424L56.3503 109.88H65.7658Z" fill="black"/>
<path d="M206.128 108.819V112.003H15.9143V107.403L33.592 98.2038H190.571L206.128 108.819Z" fill="#2F2E41"/>
<path opacity="0.1" d="M206.128 108.819V112.003H15.9143V107.403L206.128 108.819Z" fill="black"/>
<path opacity="0.1" d="M43.138 124.742H34.6527L31.1172 122.265H47.0271L43.138 124.742Z" fill="black"/>
<path opacity="0.1" d="M43.138 135.003H34.6527L31.1172 132.526H47.0271L43.138 135.003Z" fill="black"/>
<path opacity="0.1" d="M43.138 149.51H34.6527L31.1172 147.033H47.0271L43.138 149.51Z" fill="black"/>
<path opacity="0.1" d="M43.138 164.017H34.6527L31.1172 161.541H47.0271L43.138 164.017Z" fill="black"/>
<path opacity="0.1" d="M172.893 126.157H181.378L184.914 123.68H169.004L172.893 126.157Z" fill="black"/>
<path opacity="0.1" d="M172.893 136.418H181.378L184.914 133.941H169.004L172.893 136.418Z" fill="black"/>
<path opacity="0.1" d="M172.893 150.925H181.378L184.914 148.449H169.004L172.893 150.925Z" fill="black"/>
<path opacity="0.1" d="M172.893 165.433H181.378L184.914 162.956H169.004L172.893 165.433Z" fill="black"/>
<path d="M134.517 89.3491L133.338 96.8847C133.338 96.8847 127.532 99.9715 131.614 100.062C135.697 100.153 154.929 100.062 154.929 100.062C154.929 100.062 158.648 100.062 152.752 96.7939L151.572 88.8952L134.517 89.3491Z" fill="#3F3D56"/>
<path opacity="0.1" d="M130.793 99.9806C131.586 99.339 132.438 98.7745 133.338 98.2947L134.517 90.7591L151.572 90.7752L152.752 98.2039C153.721 98.7044 154.634 99.306 155.477 99.9986C156.234 99.8256 157.062 99.183 152.752 96.7939L151.572 88.8952L134.517 89.3491L133.338 96.8847C133.338 96.8847 128.459 99.4789 130.793 99.9806Z" fill="black"/>
<path d="M178.672 36.827H107.237C105.745 36.827 104.535 38.0375 104.535 39.5307V87.6894C104.535 89.1827 105.745 90.3932 107.237 90.3932H178.672C180.164 90.3932 181.373 89.1827 181.373 87.6894V39.5307C181.373 38.0375 180.164 36.827 178.672 36.827Z" fill="#3F3D56"/>
<path d="M178.788 39.6869H107.12V79.8161H178.788V39.6869Z" fill="#F2F2F2"/>
<path d="M142.954 38.8698C143.205 38.8698 143.408 38.6665 143.408 38.4158C143.408 38.1651 143.205 37.9619 142.954 37.9619C142.704 37.9619 142.5 38.1651 142.5 38.4158C142.5 38.6665 142.704 38.8698 142.954 38.8698Z" fill="#F2F2F2"/>
<path d="M181.373 82.9938V87.6894C181.373 88.0445 181.303 88.3961 181.168 88.7241C181.032 89.0522 180.833 89.3503 180.582 89.6013C180.331 89.8524 180.033 90.0516 179.705 90.1874C179.378 90.3233 179.026 90.3932 178.672 90.3932H107.237C106.882 90.3932 106.531 90.3233 106.203 90.1874C105.875 90.0516 105.577 89.8524 105.326 89.6013C105.075 89.3503 104.876 89.0522 104.741 88.7241C104.605 88.3961 104.535 88.0445 104.535 87.6894V82.9938H181.373Z" fill="#3F3D56"/>
<path d="M142.954 88.4412C143.906 88.4412 144.678 87.6689 144.678 86.7162C144.678 85.7635 143.906 84.9911 142.954 84.9911C142.002 84.9911 141.23 85.7635 141.23 86.7162C141.23 87.6689 142.002 88.4412 142.954 88.4412Z" fill="#F2F2F2"/>
<path d="M140.268 104.965V105.873H91.4618V105.147L91.529 104.965L92.7319 101.697H139.27L140.268 104.965Z" fill="#3F3D56"/>
<path d="M159.05 104.076C158.961 104.457 158.626 104.858 157.867 105.237C155.146 106.599 149.612 104.874 149.612 104.874C149.612 104.874 145.348 104.148 145.348 102.241C145.468 102.159 145.593 102.085 145.722 102.019C146.866 101.413 150.66 99.9181 157.387 102.082C157.883 102.238 158.325 102.528 158.666 102.921C158.816 103.069 158.93 103.251 158.997 103.452C159.064 103.653 159.082 103.867 159.05 104.076V104.076Z" fill="#3F3D56"/>
<path opacity="0.1" d="M159.05 104.076C155.719 105.354 152.75 105.449 149.703 103.331C148.166 102.263 146.77 101.999 145.722 102.019C146.866 101.413 150.66 99.9181 157.387 102.082C157.883 102.238 158.325 102.528 158.666 102.921C158.816 103.069 158.93 103.251 158.997 103.452C159.064 103.653 159.082 103.867 159.05 104.076V104.076Z" fill="black"/>
<path d="M154.874 103.331C155.525 103.331 156.053 103.168 156.053 102.968C156.053 102.767 155.525 102.604 154.874 102.604C154.222 102.604 153.694 102.767 153.694 102.968C153.694 103.168 154.222 103.331 154.874 103.331Z" fill="#F2F2F2"/>
<path opacity="0.1" d="M140.268 104.965V105.873H91.4618V105.147L91.529 104.965H140.268Z" fill="black"/>
<path d="M168.159 58.6391C167.774 58.2538 162.832 52.0235 161.998 50.9958C161.099 49.9682 160.714 50.1609 160.137 50.2251C159.559 50.2893 153.334 51.3812 152.628 51.4454C151.922 51.5739 151.473 51.8308 151.922 52.4731C152.307 53.0512 156.414 58.8318 157.313 60.1806L140.947 64.0986L127.983 42.3249C127.47 41.5541 127.342 41.2972 126.186 41.3614C125.031 41.4256 115.982 42.1964 115.34 42.1964C114.698 42.2606 113.992 42.5175 114.634 44.059C115.276 45.6006 125.545 67.6955 125.801 68.3378C126.058 68.9801 126.828 70.0077 128.561 69.6224C130.358 69.1728 136.519 67.567 139.92 66.6678C141.717 69.8793 145.311 76.4307 146.017 77.3941C146.916 78.6787 147.558 78.4218 148.905 78.0364C149.997 77.7153 165.72 72.0631 166.426 71.7419C167.132 71.4208 167.581 71.2281 167.068 70.5216C166.683 70.0077 162.575 64.4198 160.393 61.5294C161.87 61.1441 167.196 59.731 167.774 59.5383C168.416 59.3456 168.544 59.0245 168.159 58.6391V58.6391ZM138.444 64.7409C138.252 64.8052 129.074 66.989 128.625 67.1174C128.112 67.2459 128.112 67.1817 128.112 66.989C127.983 66.7963 117.201 44.4444 117.009 44.1875C116.88 43.9306 116.88 43.6737 117.009 43.6737C117.137 43.6737 125.673 42.9029 125.93 42.9029C126.25 42.9029 126.186 42.9672 126.315 43.1598C126.315 43.1598 138.316 63.906 138.509 64.2271C138.765 64.5482 138.637 64.6767 138.444 64.7409V64.7409ZM164.244 69.5582C164.372 69.8151 164.565 69.9435 164.052 70.072C163.602 70.2647 148.585 75.3388 148.264 75.4673C147.943 75.5957 147.75 75.6599 147.365 75.0819C146.98 74.5038 142.103 66.0897 142.103 66.0897L158.083 61.9148C158.468 61.7864 158.596 61.7221 158.853 62.1075C159.11 62.5571 164.116 69.3655 164.244 69.5581V69.5582ZM165.271 58.2538C164.886 58.318 159.046 59.7953 159.046 59.7953L154.232 53.2439C154.104 53.0512 153.976 52.8585 154.296 52.7943C154.617 52.73 160.073 51.7666 160.329 51.7024C160.586 51.6381 160.778 51.5739 161.099 52.0235C161.42 52.4089 165.528 57.6757 165.72 57.8684C165.913 58.0611 165.656 58.1895 165.271 58.2538V58.2538Z" fill="#FB503B"/>
<path d="M99.6887 49.0805C105.025 49.0805 109.35 44.7515 109.35 39.4114C109.35 34.0713 105.025 29.7423 99.6887 29.7423C94.3529 29.7423 90.0273 34.0713 90.0273 39.4114C90.0273 44.7515 94.3529 49.0805 99.6887 49.0805Z" fill="#FFB9B9"/>
<path d="M92.5697 44.2459V59.5129H108.333C108.333 59.5129 106.299 46.7904 107.316 42.9737L92.5697 44.2459Z" fill="#FFB9B9"/>
<path d="M123.842 64.8563C123.842 64.8563 108.842 57.4773 108.842 56.9684C108.842 56.4595 107.316 53.1516 106.299 53.1516C105.282 53.1516 96.6377 50.3527 91.8071 54.4239L91.2986 57.7317L72.7385 69.9453L77.8235 88.5201C77.8235 88.5201 81.1287 92.0823 80.1117 94.6268C79.0947 97.1713 80.8744 110.148 80.8744 110.148L120.791 108.876V91.5735C120.791 91.5735 122.062 87.5023 122.825 86.23C123.588 84.9578 122.825 81.141 122.825 81.141L128.927 73.5076C128.927 73.5076 128.164 66.383 123.842 64.8563Z" fill="#D0CDE1"/>
<path opacity="0.1" d="M73.3741 76.1793L74.5182 69.9453C74.5182 69.9453 67.9078 98.698 68.6705 102.006C69.4333 105.314 75.0267 110.403 75.7894 110.657C76.5522 110.912 83.6711 88.7745 83.6711 88.7745L73.3741 76.1793Z" fill="black"/>
<path d="M77.0606 69.1819L72.7384 69.9453C72.7384 69.9453 66.128 98.698 66.8907 102.006C67.6535 105.314 73.2469 110.403 74.0097 110.657C74.7724 110.912 81.8913 88.7745 81.8913 88.7745L77.0606 69.1819Z" fill="#D0CDE1"/>
<path opacity="0.1" d="M125.24 77.706L127.402 73.5076C127.402 73.5076 130.453 102.26 128.419 105.059C126.385 107.858 118.339 108.906 118.339 108.906L118.249 88.0112L125.24 77.706Z" fill="black"/>
<path d="M125.622 70.1997L128.927 73.5076C128.927 73.5076 131.978 102.26 129.944 105.059C127.91 107.858 119.864 108.906 119.864 108.906L119.774 88.0112L125.622 70.1997Z" fill="#D0CDE1"/>
<path d="M76.298 113.965C76.298 113.965 68.9248 111.166 67.6536 116.509C66.3823 121.853 70.7045 145.771 70.7045 145.771C70.7045 145.771 73.5013 163.837 75.281 164.346C77.0607 164.855 84.9424 165.109 86.2136 162.819C87.4848 160.529 82.3999 137.12 82.3999 137.12L111.893 136.611C111.893 136.611 110.113 156.967 109.096 158.748C108.079 160.529 108.079 166.636 109.096 166.636C110.113 166.636 121.3 166.127 122.062 164.6C122.825 163.074 127.147 128.723 127.147 128.723C127.147 128.723 130.707 116.764 126.639 117.527C122.571 118.291 76.298 113.965 76.298 113.965Z" fill="#3F3D56"/>
<path d="M119.774 163.583C119.774 163.583 122.317 161.801 123.588 163.583C124.859 165.364 125.368 167.399 119.774 170.453C114.181 173.506 109.859 172.743 109.859 172.234V164.855L119.774 163.583Z" fill="#2F2E41"/>
<path d="M75.7894 162.819C75.7894 162.819 73.247 161.038 71.9757 162.819C70.7045 164.6 70.196 166.636 75.7894 169.689C81.3829 172.743 85.7051 171.979 85.7051 171.471V164.091L75.7894 162.819Z" fill="#2F2E41"/>
<path d="M99.7513 27.2197C98.789 27.1862 97.8283 27.3232 96.9136 27.6244C96.2043 27.9098 95.5268 28.2685 94.8921 28.6948L90.6267 31.3494C90.2646 31.5062 89.957 31.7669 89.7427 32.0985C89.5284 32.4301 89.4171 32.8177 89.4227 33.2126L88.8897 37.2074C88.7552 38.2155 88.6312 39.2937 89.0821 40.2051C89.4585 40.9659 90.1763 41.4865 90.7665 42.0962C91.711 43.0761 92.3467 44.3123 92.5945 45.651C92.8996 47.3189 92.7043 49.3274 94.0231 50.3918C94.7373 50.9682 95.7106 51.0772 96.6265 51.1308C99.1308 51.2771 101.643 51.1803 104.129 50.8418C104.524 50.8121 104.91 50.7041 105.263 50.5239C105.711 50.2585 105.993 49.7899 106.257 49.3404C107.21 47.7174 108.191 45.991 108.181 44.1088C108.176 43.1777 107.938 42.1776 108.385 41.3608C108.621 41.0137 108.877 40.6806 109.152 40.3635C109.705 39.5857 109.813 38.5863 109.903 37.6358C110.191 34.5999 109.89 32.2896 107.654 30.1511C105.567 28.1548 102.598 27.238 99.7513 27.2197Z" fill="#2F2E41"/>
<path d="M76.0189 144.025L67.5336 187.194H71.7761L79.908 144.733L76.0189 144.025Z" fill="#2F2E41"/>
<path d="M103.243 147.564L108.546 197.101H112.082L108.899 146.149L103.243 147.564Z" fill="#2F2E41"/>
<path d="M117.738 146.149L125.163 179.056H128.699L121.628 145.441L117.738 146.149Z" fill="#2F2E41"/>
<path d="M89.454 146.149L88.3933 172.333H91.2217L93.3431 146.149H89.454Z" fill="#2F2E41"/>
<path d="M70.0084 139.426C70.0084 139.426 64.3515 101.565 80.2615 100.504C96.1715 99.4421 118.799 100.504 118.799 100.504C118.799 100.504 131.881 99.4421 127.992 139.426C127.992 139.426 131.527 151.102 99.7071 150.041C67.887 148.979 70.0084 139.426 70.0084 139.426Z" fill="#6C63FF"/>
<path d="M214.969 154.887C214.969 161.489 211.047 163.794 206.209 163.794C201.371 163.794 197.45 161.489 197.45 154.887C197.45 148.284 206.209 139.885 206.209 139.885C206.209 139.885 214.969 148.284 214.969 154.887Z" fill="#6C63FF"/>
<path d="M205.98 157.259L209.713 150.423L205.994 156.392L206.034 153.907L208.607 148.962L206.045 153.25L206.117 148.782L208.873 144.844L206.129 148.079L206.174 139.885L205.902 150.268L203.111 145.993L205.868 151.144L205.607 156.134L205.599 156.002L202.369 151.486L205.589 156.469L205.557 157.094L205.551 157.103L205.554 157.154L204.891 163.814H205.776L205.882 163.276L209.094 158.304L205.89 162.784L205.98 157.259Z" fill="#3F3D56"/>
<path d="M211.804 178.116H201.36L198.662 162.85H213.916L211.804 178.116Z" fill="#2F2E41"/>
<path d="M58.3523 74.9072H36.6281V100.397H58.3523V74.9072Z" fill="#3F3D56"/>
<path d="M54.9812 78.8625H39.999V96.4418H54.9812V78.8625Z" fill="#F2F2F2"/>
<path d="M48.9917 82.596L47.4702 85.2331L45.9488 82.596H40.8826L47.4702 94.0154L54.0579 82.596H48.9917Z" fill="#4DBA87"/>
<path d="M48.9917 82.596L47.4702 85.2331L45.9487 82.596H43.5176L47.4702 89.4473L51.4228 82.596H48.9917Z" fill="#435466"/>
</svg>
