<svg width="773" height="411" viewBox="0 0 773 411" fill="none" xmlns="http://www.w3.org/2000/svg">
<g clip-path="url(#clip0)">
<path opacity="0.1" d="M713.732 324.998C712.871 326.852 712.013 328.682 711.157 330.487C709.82 333.29 708.502 336.039 707.2 338.734C706.621 339.928 706.042 341.099 705.478 342.271C699.094 355.302 693.133 366.827 688.07 376.306C683.476 384.894 676.655 392.09 668.322 397.139C659.988 402.189 650.448 404.907 640.702 405.007L528.128 406.231H526.941L517.291 406.335L509.036 406.424L483.722 406.698H482.698L469.811 406.839H469.418L389.989 407.7L319.089 408.441L310.842 408.53L259.621 409.087H259.562L226.343 409.443H225.987L120.947 410.577L89.5246 410.918C82.8189 410.994 76.1415 410.039 69.7267 408.085C58.5637 404.716 48.5314 398.37 40.7092 389.73C27.2137 374.874 17.3778 357.542 10.7711 338.734C9.81599 336.019 8.9252 333.27 8.09874 330.487C-14.7724 253.244 13.1095 153.588 63.2908 86.8991C65.394 84.1105 67.5319 81.3911 69.7045 78.7409L69.7564 78.6816C85.1894 59.7547 102.493 43.9427 120.925 32.6993C153.587 12.7415 189.776 7.11984 225.37 23.8737C255.487 38.054 283.606 44.7215 310.864 46.5311C313.618 46.7091 316.372 46.8426 319.111 46.9242C381.638 48.8895 440.237 26.3805 509.051 11.8516C511.79 11.2731 514.537 10.702 517.305 10.1606C566.395 0.400493 620.853 -4.74655 685.613 6.07412C692.341 7.17225 698.98 8.75863 705.478 10.8207C708.333 11.7403 711.085 12.7292 713.732 13.7873C744.643 26.3508 761.501 49.5644 768.665 78.6519C769.343 81.3515 769.929 84.0981 770.424 86.8917C783.125 156.859 745.927 256.106 713.732 324.998Z" fill="#6C63FF"/>
<g opacity="0.1">
<path opacity="0.1" d="M120.925 32.6993V410.659L89.5023 411C82.7967 411.076 76.1193 410.12 69.7045 408.167V78.6816H69.7564C85.1894 59.7325 102.493 43.9205 120.925 32.6993Z" fill="#6C63FF"/>
<path opacity="0.1" d="M770.461 86.8991H63.2908C65.394 84.1105 67.5319 81.3911 69.7045 78.7409V78.6816H768.702C769.38 81.3664 769.966 84.1055 770.461 86.8991Z" fill="#6C63FF"/>
<path opacity="0.1" d="M713.732 13.7947V330.479H711.157C709.82 333.283 708.502 336.032 707.2 338.726C706.621 339.92 706.042 341.092 705.478 342.264V10.7984C708.333 11.7181 711.085 12.7168 713.732 13.7947Z" fill="#6C63FF"/>
<path opacity="0.1" d="M517.305 10.1384V406.365L509.051 406.454V11.8293C511.79 11.2508 514.537 10.6798 517.305 10.1384Z" fill="#6C63FF"/>
<path opacity="0.1" d="M319.112 46.9019V408.515L310.864 408.604V46.5089C313.618 46.6868 316.372 46.7907 319.112 46.9019Z" fill="#6C63FF"/>
<path opacity="0.1" d="M711.157 330.487C709.82 333.29 708.502 336.039 707.2 338.734H10.7711C9.816 336.019 8.92521 333.27 8.09875 330.487H711.157Z" fill="#6C63FF"/>
</g>
<path d="M171.181 197.153H157.076V239.916H171.181V197.153Z" fill="#3F3D56"/>
<path d="M550.755 194.928H536.651V240.168H550.755V194.928Z" fill="#3F3D56"/>
<path d="M640.702 395.781V405.423L527.928 406.461L526.726 406.483L483.864 406.876L482.839 406.891L469.811 407.003H469.425L390.011 407.737L259.651 408.946H259.54L226.395 409.257L226.039 409.265L78.7609 410.614V399.49L113.39 378.723L182.872 378.145L184.357 378.138L184.847 378.13L186.331 378.108L219.692 377.833L221.184 377.826L221.659 377.819L223.143 377.811L233.84 377.722L234.123 377.715L260.512 377.492H260.728L466.649 375.757L471.689 375.72H472.194L476.04 375.683L503.988 375.453L505.473 375.43L506.846 375.416H507.559L516.251 375.349L517.974 375.327L520.282 375.312L527.52 375.245L539.004 375.149L540.488 375.134L543.072 375.119H543.554L599.013 374.644L640.702 395.781Z" fill="#65617D"/>
<path opacity="0.2" d="M640.702 395.781V405.423L527.928 406.461L526.726 406.483L483.864 406.876L482.839 406.891L469.811 407.003H469.425L390.011 407.737L259.651 408.946H259.54L226.395 409.257L226.039 409.265L78.7609 410.614V399.49L113.39 378.723L182.872 378.145L184.357 378.138L184.847 378.13L186.331 378.108L219.692 377.833L221.184 377.826L221.659 377.819L223.143 377.811L233.84 377.722L234.123 377.715L260.512 377.492H260.728L466.649 375.757L471.689 375.72H472.194L476.04 375.683L503.988 375.453L505.473 375.43L506.846 375.416H507.559L516.251 375.349L517.974 375.327L520.282 375.312L527.52 375.245L539.004 375.149L540.488 375.134L543.072 375.119H543.554L599.013 374.644L640.702 395.781Z" fill="black"/>
<path d="M219.803 358.706V376.869C219.803 377.73 219.56 378.572 219.1 379.3C218.64 380.027 217.983 380.609 217.205 380.978C216.626 381.259 215.993 381.41 215.349 381.423L189.442 381.972C188.75 381.988 188.064 381.844 187.438 381.549C186.646 381.187 185.976 380.605 185.506 379.872C185.036 379.14 184.787 378.288 184.787 377.418V358.706H219.803Z" fill="#3F3D56"/>
<path opacity="0.1" d="M219.803 358.706V376.869C219.803 377.73 219.56 378.572 219.1 379.3C218.64 380.027 217.983 380.609 217.205 380.978C216.626 381.259 215.993 381.41 215.349 381.423L189.442 381.972C188.75 381.988 188.064 381.844 187.438 381.549C186.646 381.187 185.976 380.605 185.506 379.872C185.036 379.14 184.787 378.288 184.787 377.418V358.706H219.803Z" fill="black"/>
<path d="M221.288 358.706V376.869C221.288 377.73 221.044 378.572 220.584 379.3C220.124 380.027 219.467 380.609 218.69 380.978C218.11 381.259 217.477 381.41 216.834 381.423L190.927 381.972C190.235 381.988 189.548 381.844 188.922 381.549C188.131 381.187 187.46 380.605 186.99 379.872C186.52 379.14 186.271 378.288 186.272 377.418V358.706H221.288Z" fill="#3F3D56"/>
<path d="M540.488 358.706H505.473V382.068H540.488V358.706Z" fill="#3F3D56"/>
<path opacity="0.1" d="M540.488 358.706H505.473V382.068H540.488V358.706Z" fill="black"/>
<path d="M539.004 358.706H503.988V382.068H539.004V358.706Z" fill="#3F3D56"/>
<path opacity="0.1" d="M171.181 197.145V201.395L157.076 201.032V197.145H171.181Z" fill="black"/>
<path d="M264.016 77.4282L247.069 199.059C246.961 199.836 246.571 200.546 245.973 201.053C245.374 201.561 244.609 201.83 243.825 201.81L108.127 198.295L105.551 198.228C105.103 198.218 104.662 198.113 104.257 197.92C103.851 197.728 103.491 197.452 103.2 197.111C102.909 196.77 102.692 196.372 102.565 195.942C102.439 195.512 102.404 195.061 102.463 194.616L121.489 67.2899C121.612 66.5012 122.026 65.7871 122.65 65.2887C123.274 64.7902 124.062 64.5437 124.859 64.5977L261.047 73.809C261.486 73.8344 261.915 73.9506 262.308 74.1501C262.7 74.3497 263.046 74.6283 263.325 74.9684C263.604 75.3085 263.81 75.7026 263.929 76.126C264.048 76.5494 264.077 76.9928 264.016 77.4282V77.4282Z" fill="#65617D"/>
<path d="M130.598 73.542L116.248 185.776L240.959 189.729L256.296 81.448L130.598 73.542Z" fill="#6C63FF"/>
<path d="M433.475 71.8065H289.456C287.27 71.8065 285.499 73.5763 285.499 75.7595V196.404C285.499 198.587 287.27 200.357 289.456 200.357H433.475C435.66 200.357 437.431 198.587 437.431 196.404V75.7595C437.431 73.5763 435.66 71.8065 433.475 71.8065Z" fill="#65617D"/>
<path d="M430.743 80.4616H292.67V187.504H430.743V80.4616Z" fill="#6C63FF"/>
<path opacity="0.1" d="M550.755 194.92V197.731L536.651 198.02V194.92H550.755Z" fill="black"/>
<path d="M614.394 192.547C614.414 192.854 614.372 193.163 614.27 193.453C614.168 193.744 614.008 194.011 613.8 194.238C613.592 194.465 613.34 194.648 613.06 194.775C612.779 194.903 612.476 194.972 612.167 194.98L473.204 197.85C472.626 197.862 472.066 197.655 471.635 197.271C471.204 196.887 470.934 196.355 470.88 195.781L458.936 71.7175C458.907 71.4097 458.94 71.0992 459.034 70.8046C459.128 70.5101 459.282 70.2377 459.484 70.004C459.687 69.7703 459.935 69.5802 460.213 69.4451C460.492 69.31 460.795 69.2328 461.104 69.2182L599.013 62.3653L600.498 62.2912C601.088 62.2601 601.667 62.4593 602.113 62.8467C602.559 63.2342 602.837 63.7796 602.888 64.3678L614.394 192.547Z" fill="#65617D"/>
<path d="M466.872 76.5086L592.822 70.3232L603.46 183.054L478.504 186.021L466.872 76.5086Z" fill="#6C63FF"/>
<path opacity="0.1" d="M614.394 192.547C614.415 192.854 614.372 193.163 614.27 193.453C614.168 193.744 614.008 194.011 613.8 194.238C613.592 194.465 613.34 194.648 613.06 194.775C612.779 194.903 612.476 194.972 612.167 194.98L599.013 62.3653L600.498 62.2912C601.088 62.2601 601.667 62.4593 602.113 62.8467C602.559 63.2342 602.837 63.7796 602.888 64.3678L614.394 192.547Z" fill="black"/>
<path opacity="0.1" d="M124.882 64.5903L108.127 198.295L105.551 198.228C105.103 198.218 104.662 198.113 104.257 197.92C103.851 197.728 103.491 197.452 103.2 197.111C102.909 196.77 102.692 196.372 102.565 195.942C102.439 195.512 102.404 195.061 102.463 194.616L121.489 67.2899C121.61 66.4957 122.027 65.7765 122.656 65.2761C123.285 64.7756 124.08 64.5306 124.882 64.5903V64.5903Z" fill="black"/>
<path opacity="0.1" d="M171.181 227.249H157.076V239.916H171.181V227.249Z" fill="black"/>
<path opacity="0.1" d="M221.288 358.699V362.385L186.272 363.319V358.699H221.288Z" fill="black"/>
<path d="M283.086 231.662V356.407C283.077 357.169 282.776 357.897 282.244 358.443C281.712 358.988 280.99 359.308 280.228 359.337L137.961 363.119H137.924C137.15 363.11 136.409 362.798 135.862 362.25C135.314 361.703 135.002 360.964 134.992 360.19V231.662C135.002 230.888 135.314 230.148 135.862 229.601C136.409 229.054 137.15 228.742 137.924 228.732H280.154C280.929 228.742 281.669 229.054 282.217 229.601C282.765 230.148 283.077 230.888 283.086 231.662V231.662Z" fill="#65617D"/>
<path opacity="0.1" d="M137.961 228.732V363.119H137.924C137.15 363.11 136.409 362.798 135.862 362.25C135.314 361.703 135.002 360.964 134.992 360.19V231.662C135.002 230.888 135.314 230.148 135.862 229.601C136.409 229.054 137.15 228.742 137.924 228.732H137.961Z" fill="black"/>
<path d="M144.457 236.698H276.22V346.647L144.457 349.614V236.698Z" fill="#D4DFEC"/>
<path opacity="0.1" d="M550.755 227.249H536.651V240.168H550.755V227.249Z" fill="black"/>
<path opacity="0.1" d="M539.004 358.699V363.453L503.988 362.518V358.699H539.004Z" fill="black"/>
<path d="M585.214 231.662V360.19C585.204 360.97 584.887 361.715 584.331 362.263C583.775 362.812 583.025 363.119 582.244 363.119V363.119L439.948 359.337C439.186 359.308 438.464 358.988 437.932 358.443C437.4 357.897 437.099 357.169 437.09 356.407V231.662C437.099 230.888 437.411 230.148 437.959 229.601C438.507 229.054 439.247 228.742 440.022 228.732H582.252C583.032 228.734 583.779 229.042 584.334 229.591C584.888 230.139 585.204 230.883 585.214 231.662V231.662Z" fill="#65617D"/>
<path opacity="0.1" d="M585.214 231.662V360.19C585.204 360.97 584.887 361.715 584.331 362.263C583.775 362.812 583.025 363.119 582.244 363.119V363.119V228.732C583.025 228.732 583.775 229.04 584.331 229.588C584.887 230.136 585.204 230.881 585.214 231.662Z" fill="black"/>
<path d="M575.749 236.698H443.986V346.647L575.749 349.614V236.698Z" fill="#D4DFEC"/>
<path d="M433.408 231.662V356.407C433.399 357.169 433.097 357.897 432.565 358.443C432.033 358.988 431.311 359.308 430.55 359.337L288.283 363.119C287.502 363.119 286.752 362.812 286.196 362.263C285.64 361.715 285.323 360.97 285.313 360.19V231.662C285.323 230.888 285.635 230.148 286.183 229.601C286.731 229.054 287.471 228.742 288.246 228.732H430.476C431.25 228.742 431.99 229.054 432.538 229.601C433.086 230.148 433.398 230.888 433.408 231.662V231.662Z" fill="#65617D"/>
<path d="M294.778 236.698H426.541V346.647L294.778 349.614V236.698Z" fill="#D4DFEC"/>
<path opacity="0.1" d="M640.702 395.781V405.423L527.928 406.461L526.726 406.483L483.864 406.876L482.839 406.891L469.811 407.003H469.425L390.011 407.737L259.651 408.946H259.54L226.395 409.257L226.039 409.265L78.7609 410.614V399.49L229.09 398.503H229.446L259.874 398.296H260.015L470.153 396.909H470.368L470.494 396.901H470.843L474.399 396.879H475.483L530.779 396.508L534.045 396.493L534.772 396.486L640.702 395.781Z" fill="black"/>
<path d="M361.706 239.916C382.75 239.916 399.81 222.872 399.81 201.847C399.81 180.823 382.75 163.779 361.706 163.779C340.662 163.779 323.603 180.823 323.603 201.847C323.603 222.872 340.662 239.916 361.706 239.916Z" fill="#FBBEBE"/>
<path d="M399.817 279.721C399.817 279.721 325.956 288.62 333.008 279.721C335.562 276.502 336.267 266.964 336.126 256.099C336.081 252.799 335.962 249.38 335.792 245.976C334.975 229.659 333.008 213.714 333.008 213.714C333.008 213.714 397.59 183.306 390.167 207.41C387.198 217.148 388.17 230.824 390.427 243.662C391.088 247.407 391.852 251.078 392.654 254.564C394.611 263.066 397.001 271.463 399.817 279.721V279.721Z" fill="#FBBEBE"/>
<path opacity="0.1" d="M399.817 279.721C399.817 279.721 325.956 288.62 333.008 279.721C335.562 276.502 336.267 266.964 336.126 256.099C347.387 251.293 361.714 254.875 361.714 254.875C376.798 251.872 386.47 252.458 392.654 254.564C394.611 263.066 397.001 271.463 399.817 279.721V279.721Z" fill="black"/>
<path d="M259.621 409.784V409.161L389.989 407.744L469.418 407.003H469.641L469.559 408.1L469.67 407.003H469.811V406.876L470.828 396.901L471.214 393.126L471.333 391.947L471.437 390.961L476.025 375.675L480.612 360.412L484.472 347.559L490.366 327.92C490.366 327.92 487.026 320.133 485.17 317.908C483.314 315.683 481.458 300.479 481.458 300.479C481.458 300.479 465.617 285.402 458.691 283.666C455.789 282.925 450.058 281.938 443.971 280.7C441.692 280.24 439.354 279.75 437.104 279.216C435.835 278.927 434.588 278.623 433.393 278.319C431.067 277.738 428.774 277.03 426.526 276.198C425.348 275.77 424.226 275.2 423.186 274.499C417.73 270.502 404.056 270.05 403.529 270.05C403.528 270.032 403.528 270.015 403.529 269.998V269.931C403.548 269.62 403.548 269.308 403.529 268.996C403.529 268.7 403.529 268.351 403.462 267.958C403.462 267.839 403.462 267.713 403.41 267.587C403.373 267.32 403.329 267.038 403.262 266.742C403.239 266.609 403.209 266.478 403.173 266.349C402.958 265.455 402.646 264.587 402.245 263.76C402.193 263.642 402.126 263.516 402.067 263.397C401.703 262.712 401.28 262.059 400.805 261.446C400.708 261.32 400.604 261.187 400.493 261.061C399.885 260.344 399.209 259.689 398.474 259.103C398.273 258.947 398.065 258.784 397.85 258.636C397.73 258.538 397.604 258.449 397.472 258.369L396.811 257.938L396.195 257.582C395.653 257.286 395.081 256.996 394.458 256.722C394.265 256.633 394.057 256.551 393.849 256.47C393.641 256.388 393.315 256.262 393.04 256.158H392.995L392.439 255.936C392.015 255.795 391.585 255.669 391.132 255.543L390.442 255.365L389.699 255.194L388.957 255.039C388.215 254.89 387.42 254.757 386.589 254.653L385.743 254.549L384.874 254.46L383.976 254.386L382.699 254.312L381.215 254.26C374.667 254.259 368.137 254.953 361.736 256.329C357.289 255.34 352.734 254.922 348.181 255.083H347.535L346.793 255.127H346.318L345.36 255.217C345.041 255.217 344.714 255.283 344.395 255.328C344.076 255.372 343.742 255.409 343.423 255.461L342.933 255.543C342.45 255.624 341.96 255.713 341.448 255.817C341.285 255.847 341.122 255.884 340.958 255.928C340.312 256.069 339.667 256.24 339.028 256.433C338.709 256.522 338.39 256.626 338.071 256.737C337.907 256.781 337.751 256.841 337.595 256.9L337.12 257.071L336.653 257.256L336.096 257.479C335.814 257.597 335.539 257.723 335.265 257.857C335.109 257.924 334.953 257.998 334.804 258.079C334.656 258.161 334.5 258.228 334.359 258.309C332.681 259.176 331.129 260.269 329.749 261.558L329.37 261.921L328.999 262.299C328.873 262.425 328.754 262.559 328.636 262.692C328.152 263.221 327.701 263.778 327.285 264.361C327.166 264.517 327.054 264.673 326.943 264.836C326.472 265.53 326.046 266.253 325.666 267.001C325.57 267.179 325.481 267.365 325.392 267.543C324.786 268.796 324.289 270.098 323.907 271.436C323.768 271.931 323.642 272.425 323.528 272.92C323.528 272.92 307.813 279.847 294.778 284.86C291.311 286.195 288.045 287.404 285.313 288.316C284.519 288.583 283.777 288.828 283.086 289.058C281.588 289.599 280.031 289.958 278.447 290.126C277.7 290.138 276.956 290.208 276.22 290.334C270.229 291.305 259.963 295.525 258.842 299.76C258.751 300.098 258.726 300.451 258.768 300.798C258.768 300.798 258.768 300.85 258.768 300.88C259.51 306.071 254.314 305.33 254.314 305.33C254.314 305.33 252.458 319.05 249.86 322.759C247.982 325.428 246.698 331.384 246.534 335.878C246.441 337.279 246.551 338.685 246.861 340.054C246.861 340.091 246.861 340.128 246.861 340.158C247.158 341.151 246.445 343.866 245.235 347.344C243.921 351.164 242.006 355.91 240.165 360.39C237.389 367.154 234.776 373.295 234.612 374.644C234.546 375.245 234.353 376.32 234.085 377.707C233.002 383.359 230.596 394.12 229.409 398.474C228.525 401.722 227.241 406.172 226.358 409.227C226.358 409.316 226.306 409.405 226.284 409.487L259.562 409.161V409.784H259.666H259.621Z" fill="#6C63FF"/>
<path opacity="0.1" d="M271.766 322.365C271.766 322.365 314.079 344.244 329.296 341.648L271.766 322.365Z" fill="black"/>
<path opacity="0.1" d="M357.876 313.466C357.876 313.466 399.075 326.815 412.808 328.669C426.541 330.524 357.876 313.466 357.876 313.466Z" fill="black"/>
<path opacity="0.1" d="M403.574 270.509C382.046 274.47 341.515 273.617 323.996 273.016C330.417 250.025 361.729 257.842 361.729 257.842C400.485 250.114 403.455 266.148 403.574 270.509Z" fill="black"/>
<path d="M403.574 269.026C382.046 272.986 341.515 272.134 323.996 271.533C330.417 248.542 361.729 256.359 361.729 256.359C400.485 248.631 403.455 264.665 403.574 269.026Z" fill="#6C63FF"/>
<path d="M517.847 370.387C517.847 370.387 543.205 366.494 543.703 377.618C544.2 388.743 530.771 396.516 530.771 396.516L517.847 370.387Z" fill="#FBBEBE"/>
<path opacity="0.1" d="M390.427 243.662C389.336 244.149 388.221 244.579 387.086 244.952C379.084 247.711 371.015 250.492 362.59 251.501C354.164 252.509 345.323 251.619 337.974 247.422C337.202 246.986 336.459 246.503 335.747 245.976C334.931 229.659 332.963 213.714 332.963 213.714C332.963 213.714 397.546 183.306 390.123 207.41C387.168 217.148 388.17 230.824 390.427 243.662Z" fill="black"/>
<path d="M351.254 142.345C350.195 142.624 349.085 142.653 348.012 142.427C346.94 142.202 345.935 141.729 345.078 141.047L346.622 143.19C345.712 143.295 344.79 143.2 343.921 142.912C343.052 142.624 342.256 142.149 341.589 141.522C341.449 143.44 341.529 145.369 341.827 147.269C339.272 147.393 336.757 146.604 334.73 145.044C334.691 145.714 334.857 146.379 335.208 146.95C335.558 147.522 336.075 147.972 336.69 148.241C334.123 147.935 331.533 148.572 329.402 150.033C327.271 151.495 325.746 153.681 325.11 156.184L328.985 156.54C325.939 157.19 323.206 158.856 321.235 161.264C320.047 162.748 319.141 164.646 319.661 166.456C320.181 168.265 322.69 169.422 324.056 168.132C322.113 170.449 320.7 173.162 319.918 176.082C319.136 179.002 319.003 182.057 319.527 185.034C319.88 186.303 319.995 187.625 319.869 188.935C319.624 190.159 318.852 191.22 318.466 192.414C317.723 194.579 318.429 196.93 319.089 199.088L322.571 210.525C323.833 214.656 325.087 218.794 326.735 222.792C327.902 225.319 328.894 227.923 329.705 230.586C330.64 234.176 330.677 238.107 332.674 241.244C334.042 243.218 335.872 244.829 338.004 245.938C345.345 250.136 354.216 251.026 362.619 250.018C371.023 249.009 379.084 246.228 387.079 243.469C388.855 242.934 390.56 242.187 392.157 241.244C397.687 237.625 398.919 230.223 399.951 223.704C401.102 216.436 402.638 209.182 405.363 202.344C406.981 198.273 409.074 194.142 408.718 189.781C408.265 183.988 403.677 179.294 402.542 173.598C402.162 171.694 402.179 169.732 402.594 167.835C402.946 166.705 403.143 165.533 403.18 164.35C403.054 161.961 401.094 160.122 399.253 158.587C395.259 155.254 391.137 152.105 386.886 149.138C386.671 147.655 388.69 147.017 389.603 145.845C390.895 144.192 389.558 141.566 387.599 140.795C385.639 140.023 383.442 140.528 381.4 141.04C381.533 139.996 381.325 138.937 380.808 138.02C380.29 137.104 379.49 136.379 378.527 135.953C377.563 135.527 376.488 135.423 375.461 135.657C374.434 135.891 373.51 136.449 372.826 137.25C372.284 136.008 371.418 134.934 370.319 134.141C369.219 133.348 367.927 132.864 366.576 132.74C361.654 132.355 361.558 136.115 358.41 138.184C355.263 140.253 352.665 137.524 350.245 135.536C349.8 136.66 349.659 137.881 349.837 139.076C350.014 140.271 350.503 141.398 351.254 142.345V142.345Z" fill="#3F3D56"/>
<path d="M536.65 392.637C536.65 392.637 535.99 394.209 534.772 396.486C532.931 399.989 530.689 403.267 528.091 406.253L527.891 406.468H526.688L483.826 406.862H482.802L482.676 406.713L474.362 396.857L471.229 393.141L471.103 392.985L470.836 392.674L470.687 392.496L470.494 392.266L464.4 385.042L466.627 375.772L470.42 360.153L470.517 359.774L471.259 356.808L471.786 354.583L473.553 347.329L479.61 322.373L490.374 327.935L501.724 347.96L507.818 358.714H511.159C511.79 358.714 513.237 359.93 514.692 361.332C515.212 361.829 515.732 362.355 516.177 362.815C517.498 364.18 518.545 365.351 518.545 365.351C518.545 365.351 523.957 365.47 525.412 369.727C525.487 369.933 525.549 370.144 525.597 370.358C526.08 372.031 526.709 373.659 527.475 375.223C528.433 377.307 529.635 379.673 530.853 382.039C533.117 386.377 535.418 390.508 536.264 392.006L536.368 392.192L536.65 392.637Z" fill="#6C63FF"/>
<path opacity="0.1" d="M472.885 359.151L472.81 360.212V360.286L472.684 361.992L471.697 375.72L470.502 392.259L470.16 396.916L469.418 406.884V407.01L389.989 407.752L259.644 409.161V409.784H259.54V409.161V408.953L259.874 398.303L260.512 377.492L261.062 359.848L261.114 358.091C261.146 357.03 261.395 355.987 261.844 355.025C262.294 354.063 262.935 353.203 263.728 352.497C264.521 351.791 265.45 351.255 266.459 350.919C267.467 350.584 268.532 350.458 269.591 350.548C273.095 350.845 277.645 351.208 283.086 351.594L285.313 351.757C316.736 353.938 374.808 356.756 433.408 353.24C434.64 353.174 435.88 353.099 437.119 353.01C446.205 352.439 455.284 351.705 464.274 350.786C465.41 350.667 466.559 350.798 467.639 351.17C468.719 351.543 469.704 352.148 470.525 352.942C471.346 353.736 471.983 354.7 472.39 355.766C472.798 356.833 472.967 357.976 472.885 359.114V359.151Z" fill="black"/>
<path d="M259.621 409.784V409.161L389.989 407.744L469.418 407.003H469.641V406.876L470.383 396.909L470.702 392.459L471.92 375.69L472.877 362.415V362.088C472.921 361.477 472.894 360.862 472.796 360.256C472.8 360.232 472.8 360.207 472.796 360.182C472.592 358.931 472.082 357.748 471.311 356.741C470.494 355.694 469.423 354.872 468.199 354.353C466.976 353.834 465.64 353.635 464.318 353.774C455.329 354.694 446.25 355.428 437.164 355.999C435.924 356.088 434.684 356.162 433.452 356.229C374.853 359.708 316.781 356.889 285.358 354.746L283.131 354.583C277.69 354.197 273.139 353.841 269.635 353.537C267.708 353.374 265.789 353.931 264.248 355.099C262.707 356.268 261.654 357.965 261.292 359.863C261.217 360.265 261.172 360.671 261.158 361.08L260.653 377.515L259.963 398.333L259.636 408.983V409.19V409.813L259.621 409.784Z" fill="#3F3D56"/>
<path opacity="0.1" d="M473.107 364.35L472.194 375.72L470.836 392.666L470.494 396.909L469.752 406.409L469.708 406.884V407.01L469.596 408.108L469.678 407.01H469.463L390.034 407.752L259.644 409.161V408.953L260.008 398.303L260.75 377.492L261.225 363.66C261.248 362.874 261.468 362.105 261.865 361.425C262.262 360.745 262.823 360.175 263.496 359.767C264.337 359.252 265.32 359.018 266.302 359.099C267.861 359.225 269.777 359.374 272.011 359.537C275.641 359.804 280.117 360.115 285.328 360.442C294.979 361.05 307.086 361.703 320.96 362.237C359.561 363.72 411.672 364.217 461.171 359.885C463.398 359.693 465.699 359.478 467.948 359.263C468.839 359.174 469.736 359.344 470.532 359.752C470.757 359.864 470.971 359.998 471.17 360.153C471.816 360.62 472.328 361.249 472.655 361.977C472.73 362.122 472.792 362.273 472.84 362.429C473.063 363.044 473.154 363.698 473.107 364.35V364.35Z" fill="black"/>
<path opacity="0.1" d="M221.288 374.503V376.869C221.288 377.73 221.044 378.572 220.584 379.3C220.124 380.027 219.467 380.609 218.69 380.978L188.922 381.549C188.131 381.187 187.46 380.605 186.99 379.872C186.52 379.14 186.271 378.288 186.272 377.418V375.193L221.288 374.503Z" fill="black"/>
<path d="M221.659 382.372L182.872 383.114V376.684L221.659 375.942V382.372Z" fill="#3F3D56"/>
<path opacity="0.1" d="M221.659 382.372L182.872 383.114V376.684L221.659 375.942V382.372Z" fill="black"/>
<path d="M223.144 382.372L184.357 383.114V376.684L223.144 375.942V382.372Z" fill="#3F3D56"/>
<g opacity="0.1">
<path opacity="0.1" d="M351.559 139.912C350.834 138.971 350.352 137.865 350.156 136.693C349.977 137.839 350.084 139.011 350.468 140.105C350.836 140.071 351.201 140.007 351.559 139.912Z" fill="black"/>
<path opacity="0.1" d="M342.131 144.837C341.991 143.928 341.899 143.012 341.856 142.093C341.856 143.005 341.856 143.925 341.856 144.844L342.131 144.837Z" fill="black"/>
<path opacity="0.1" d="M402.631 169.586C402.672 168.925 402.761 168.268 402.898 167.62C403.249 166.492 403.449 165.323 403.492 164.142C403.475 163.877 403.435 163.614 403.373 163.356C403.247 164.038 403.047 164.72 402.898 165.395C402.602 166.771 402.511 168.183 402.631 169.586Z" fill="black"/>
<path opacity="0.1" d="M387.19 146.669L388 147.255C388.682 146.762 389.32 146.211 389.907 145.608C390.187 145.222 390.36 144.77 390.409 144.296C390.459 143.822 390.383 143.344 390.189 142.908C390.115 143.078 390.021 143.237 389.907 143.383C388.994 144.555 386.975 145.2 387.19 146.669Z" fill="black"/>
<path opacity="0.1" d="M326.193 153.803C325.923 154.344 325.706 154.911 325.548 155.494C326.709 154.847 327.96 154.374 329.259 154.093L326.193 153.803Z" fill="black"/>
<path opacity="0.1" d="M336.43 145.734C335.942 145.466 335.476 145.161 335.034 144.822C335.016 145.115 335.038 145.41 335.101 145.697C335.545 145.676 335.989 145.688 336.43 145.734V145.734Z" fill="black"/>
<path opacity="0.1" d="M409.007 189.432C408.703 193.029 407.025 196.493 405.667 199.904C402.943 206.742 401.406 213.996 400.255 221.271C399.224 227.79 398.028 235.192 392.461 238.804C390.87 239.753 389.167 240.501 387.391 241.029C379.389 243.795 371.319 246.569 362.894 247.578C354.469 248.586 345.628 247.704 338.278 243.506C336.148 242.395 334.319 240.784 332.949 238.811C330.967 235.674 330.929 231.743 329.979 228.154C329.169 225.488 328.177 222.881 327.01 220.352C325.369 216.361 324.107 212.193 322.853 208.092C321.69 204.28 320.529 200.465 319.371 196.648C318.99 195.5 318.707 194.322 318.525 193.126C318.236 195.024 318.8 197.012 319.371 198.873C320.529 202.695 321.69 206.51 322.853 210.317C324.107 214.448 325.369 218.586 327.01 222.576C328.177 225.106 329.169 227.713 329.979 230.379C330.915 233.968 330.952 237.899 332.949 241.036C334.319 243.009 336.148 244.62 338.278 245.731C345.628 249.929 354.491 250.811 362.894 249.802C371.297 248.794 379.359 246.02 387.391 243.254C389.167 242.726 390.87 241.978 392.461 241.029C397.991 237.417 399.224 230.015 400.255 223.496C401.406 216.221 402.943 208.967 405.667 202.129C407.285 198.065 409.379 193.934 409.022 189.566C409.022 189.521 409.007 189.477 409.007 189.432Z" fill="black"/>
<path opacity="0.1" d="M320.158 186.562C320.158 186.562 320.158 186.51 320.158 186.48C320.292 185.173 320.176 183.851 319.817 182.587C319.669 181.773 319.572 180.95 319.527 180.124C319.442 181.693 319.539 183.266 319.817 184.812C319.936 185.39 320.069 185.976 320.158 186.562Z" fill="black"/>
<path opacity="0.1" d="M322.422 168.421C322.993 167.463 323.641 166.553 324.36 165.699C323.001 166.997 320.492 165.84 319.965 164.038C319.771 164.767 319.771 165.534 319.965 166.263C320.148 166.807 320.472 167.294 320.903 167.673C321.335 168.052 321.859 168.31 322.422 168.421V168.421Z" fill="black"/>
</g>
<path opacity="0.1" d="M507.826 358.706C507.826 358.706 510.179 367.235 507.826 374.652C505.473 382.068 507.826 358.706 507.826 358.706Z" fill="black"/>
<path opacity="0.1" d="M517.847 367.406C517.847 367.406 518.835 378.234 516.608 380.155C514.381 382.076 517.847 367.406 517.847 367.406Z" fill="black"/>
<path d="M147.716 254.282L223.144 253.54" stroke="#6C63FF" stroke-width="2" stroke-miterlimit="10"/>
<path d="M147.716 263.53L223.144 262.796" stroke="#6C63FF" stroke-width="2" stroke-miterlimit="10"/>
<path d="M147.716 272.786L223.144 272.045" stroke="#6C63FF" stroke-width="2" stroke-miterlimit="10"/>
</g>
<defs>
<clipPath id="clip0">
<rect width="773" height="411" fill="white"/>
</clipPath>
</defs>
</svg>
