<svg width="520" height="467" viewBox="0 0 520 467" fill="none" xmlns="http://www.w3.org/2000/svg">
<path d="M515.438 178.59C515.252 178.59 515.07 178.533 514.917 178.427L262.618 2.63957C261.85 2.10711 260.938 1.82255 260.004 1.82415C259.069 1.82574 258.158 2.11341 257.392 2.64849L6.91005 178.425C6.71193 178.564 6.46673 178.619 6.22838 178.577C5.99002 178.535 5.77804 178.4 5.63908 178.202C5.50011 178.004 5.44554 177.758 5.48737 177.52C5.5292 177.281 5.66401 177.069 5.86213 176.93L256.344 1.15378C257.417 0.404782 258.693 0.00215908 260.001 8.65921e-06C261.309 -0.00214176 262.586 0.39628 263.661 1.14175L515.96 176.928C516.119 177.04 516.239 177.199 516.302 177.383C516.365 177.566 516.367 177.766 516.309 177.951C516.251 178.136 516.135 178.298 515.978 178.413C515.822 178.528 515.632 178.59 515.438 178.59L515.438 178.59Z" fill="#3F3D56"/>
<path d="M21.2234 184.821L260.252 7.59265L501.094 197.432L272.568 332.966L148.497 304.673L21.2234 184.821Z" fill="#E6E6E6"/>
<path d="M158.97 416.68H40.8841C40.159 416.681 39.4409 416.539 38.7707 416.262C38.1005 415.985 37.4915 415.579 36.9785 415.066C36.4654 414.553 36.0584 413.945 35.7808 413.275C35.5031 412.604 35.3601 411.886 35.3601 411.161C35.3601 410.435 35.5031 409.717 35.7808 409.047C36.0584 408.377 36.4654 407.768 36.9785 407.255C37.4915 406.743 38.1005 406.336 38.7707 406.059C39.4409 405.782 40.159 405.64 40.8841 405.641H158.97C159.695 405.64 160.413 405.782 161.083 406.059C161.754 406.336 162.363 406.743 162.876 407.255C163.389 407.768 163.796 408.377 164.073 409.047C164.351 409.717 164.494 410.435 164.494 411.161C164.494 411.886 164.351 412.604 164.073 413.275C163.796 413.945 163.389 414.553 162.876 415.066C162.363 415.579 161.754 415.985 161.083 416.262C160.413 416.539 159.695 416.681 158.97 416.68Z" fill="#192A4C"/>
<path d="M83.2507 392.95H40.8841C40.159 392.951 39.4409 392.809 38.7707 392.532C38.1005 392.255 37.4915 391.849 36.9785 391.336C36.4654 390.823 36.0584 390.215 35.7808 389.545C35.5031 388.874 35.3601 388.156 35.3601 387.431C35.3601 386.705 35.5031 385.987 35.7808 385.317C36.0584 384.647 36.4654 384.038 36.9785 383.525C37.4915 383.013 38.1005 382.606 38.7707 382.329C39.4409 382.052 40.159 381.91 40.8841 381.911H83.2507C83.9758 381.91 84.6939 382.052 85.3641 382.329C86.0343 382.606 86.6433 383.013 87.1563 383.525C87.6694 384.038 88.0764 384.647 88.3541 385.317C88.6318 385.987 88.7747 386.705 88.7747 387.431C88.7747 388.156 88.6318 388.874 88.3541 389.545C88.0764 390.215 87.6694 390.823 87.1563 391.336C86.6433 391.849 86.0343 392.255 85.3641 392.532C84.6939 392.809 83.9758 392.951 83.2507 392.95Z" fill="#192A4C"/>
<path d="M263.613 283.535C262.715 283.536 261.826 283.362 260.995 283.023L113.579 221.828V30.2781C113.581 28.5843 114.254 26.9604 115.452 25.7627C116.649 24.565 118.272 23.8913 119.965 23.8893H402.772C404.465 23.8913 406.088 24.565 407.285 25.7627C408.483 26.9604 409.156 28.5843 409.158 30.2781V221.962L408.881 222.08L266.309 282.993C265.456 283.352 264.539 283.536 263.613 283.535Z" fill="white"/>
<path d="M263.613 283.991C262.656 283.993 261.708 283.807 260.822 283.445L113.123 222.133V30.2782C113.125 28.4633 113.847 26.7234 115.129 25.4402C116.412 24.1569 118.151 23.435 119.965 23.433H402.772C404.586 23.435 406.325 24.1569 407.608 25.4402C408.891 26.7234 409.612 28.4633 409.614 30.2782V222.263L266.489 283.412C265.578 283.795 264.6 283.992 263.613 283.991ZM114.948 220.913L261.517 281.757C262.884 282.312 264.416 282.303 265.776 281.732L407.79 221.058V30.2782C407.788 28.9473 407.259 27.6714 406.318 26.7304C405.378 25.7893 404.102 25.2599 402.772 25.2584H119.965C118.635 25.2599 117.36 25.7893 116.419 26.7304C115.478 27.6714 114.949 28.9473 114.948 30.2782L114.948 220.913Z" fill="#3F3D56"/>
<path d="M513.614 176.765H513.431L408.702 221.505L265.41 282.719C264.85 282.955 264.249 283.077 263.642 283.081C263.034 283.084 262.432 282.967 261.87 282.737L114.035 221.377L6.73252 176.838L6.5686 176.765H6.38596C4.69288 176.767 3.06967 177.44 1.87248 178.638C0.675281 179.836 0.00187861 181.46 0 183.154V460.611C0.00188102 462.305 0.675282 463.929 1.87248 465.127C3.06967 466.324 4.69288 466.998 6.38596 467H513.614C515.307 466.998 516.93 466.324 518.128 465.127C519.325 463.929 519.998 462.305 520 460.611V183.154C519.998 181.46 519.325 179.836 518.128 178.638C516.93 177.44 515.307 176.767 513.614 176.765ZM518.175 460.611C518.175 461.821 517.694 462.982 516.839 463.838C515.984 464.693 514.824 465.174 513.614 465.175H6.38596C5.17635 465.174 4.01643 464.693 3.1611 463.838C2.30578 462.982 1.82504 461.821 1.82456 460.611V183.154C1.82622 181.974 2.28377 180.84 3.10155 179.989C3.91934 179.139 5.03405 178.638 6.21269 178.59L114.035 223.349L261.168 284.426C262.761 285.074 264.545 285.064 266.131 284.398L408.702 223.485L513.797 178.59C514.973 178.641 516.085 179.144 516.901 179.994C517.716 180.844 518.173 181.976 518.175 183.154V460.611Z" fill="#3F3D56"/>
<path d="M262.139 229.219C256.697 229.229 251.399 227.469 247.045 224.203L246.775 224L189.93 180.458C187.297 178.44 185.088 175.923 183.427 173.051C181.767 170.178 180.689 167.007 180.253 163.718C179.818 160.428 180.035 157.085 180.891 153.88C181.747 150.674 183.226 147.669 185.243 145.035C187.26 142.401 189.776 140.191 192.647 138.53C195.518 136.869 198.688 135.79 201.976 135.354C205.264 134.919 208.605 135.136 211.809 135.992C215.013 136.849 218.017 138.328 220.65 140.346L257.47 168.592L344.481 55.0653C346.499 52.4322 349.016 50.2225 351.888 48.5625C354.759 46.9024 357.93 45.8245 361.218 45.3903C364.506 44.956 367.847 45.174 371.051 46.0317C374.255 46.8894 377.258 48.3701 379.89 50.3891L379.349 51.124L379.904 50.3998C385.213 54.4819 388.687 60.5041 389.563 67.1452C390.439 73.7863 388.646 80.504 384.578 85.8244L282.232 219.359C279.865 222.436 276.821 224.926 273.336 226.636C269.852 228.346 266.02 229.23 262.139 229.219Z" fill="#192A4C"/>
</svg>
